<svg xmlns="http://www.w3.org/2000/svg" width="100" height="100" shape-rendering="geometricPrecision" text-rendering="geometricPrecision" image-rendering="optimizeQuality" fill-rule="evenodd" clip-rule="evenodd"><defs><style>.fil3{fill:#116466;fill-rule:nonzero}</style><linearGradient id="id0" gradientUnits="userSpaceOnUse" x1="3.846" y1="50" x2="96.154" y2="50"><stop offset="0" stop-color="#feffff"/><stop offset="1" stop-color="#d1e8e2"/></linearGradient><linearGradient id="id1" gradientUnits="userSpaceOnUse" x1="87.768" y1="34.55" x2="19.456" y2="38.41"><stop offset="0" stop-color="#116466"/><stop offset="1" stop-color="#2c3531"/></linearGradient><linearGradient id="id2" gradientUnits="userSpaceOnUse" x1="20.339" y1="75.474" x2="73.373" y2="75.474"><stop offset="0" stop-color="#2c3531"/><stop offset="1" stop-color="#116466"/></linearGradient></defs><g id="Layer_x0020_1"><circle cx="50" cy="50" r="46" fill="url(#id0)" stroke="#2c3531" stroke-width=".277"/><path d="M37 64v1l-1 1-6 7 4 8v2h-1-1-1-1v-1l-4-9-2 9v1h-1-1-1l-1-1 4-18h4l-2 8 7-7v-1h4zm7 1s0 1-1 1c0 1 0 1-1 1h-1-1v-1h-1s0-1 1-1v-1-1h4v2zm-4 17v1h-1-1-1s-1 0-1-1l3-13h4l-3 13zm18-10l-1 1v1l-1 8-1 1h-2-1v-1l2-8v-1s0-1-1-1h-2l-1 1s-1 1-1 2c0 0 0 1-1 1l-1 6v1h-1-1-1v-1l2-13h3v2l1-1 1-1h1c1 0 1-1 2-1s1 1 2 1l1 1v1l1 1zm15-3v2s0 1-1 1h-1v2c0 1-1 2-1 2-1 1-1 1-2 1-1 1-2 1-3 1h-1s-1 0-1-1c0 1 0 1-1 1v1h1l3 1h2c1 0 1 0 2 1v1s1 0 1 1c0 0-1 0-1 1v1l-1 1s-1 1-2 1l-1 1h-6l-1-1c-1 0-1-1-1-1-1 0-1-1-1-1 0-1 1-1 1-2s1-1 2-2c0 0-1 0-1-1v-1-1c1 0 1-1 1-1l1-1v-1c-1 0-1 0-1-1 0 0 0-1 1-1v-1c0-1 0-1 1-1 0-1 0-1 1-2h10zm-5 4v-1c0-1-1-1-1-1h-1-1l-1 1v3h3l1-1v-1zm-1 10h-1c0-1 0-1-1-1h-2c-1 0-1 0-1 1h-1v1c0 1 0 1 1 1h4l1-1v-1z" fill="url(#id2)" fill-rule="nonzero"/><path d="M25 20c0 1 0 1-1 3v1c1 2 2 4 3 5s1 1 1 2c1 2 3 5 5 6 4 4 8 4 12 0l2-1 4-5v-1-1c-1-1-1-2-1-3s2-2 3-2c3-1 5 3 2 6-1 0 0 0 0 1 1 2 1 4 2 6 3 5 8 6 8 7-5 0-10-3-12-8v-2c-1 0-2 1-2 2-1 0-1 1-2 2l-3 2c0 1-1 1-1 2 0 0 2 1 3 1 0 0 2 1 3 1-4 1-9 1-12 0s-9-4-10-5c0 3 1 6 1 9 5 0 9-1 14-1s10 1 15 2c3 0 6 1 8 2 1 0 4 1 4 1 1-2 3-7 3-8h-3c-2 0-5-1-7-2 0 0-1-1-2-1 0-1-1-2-2-2-1-2-2-3-2-5h-1c3-3 6-5 8-8v-1c0-1 0-1 1-1v-1-1c-2-1-3-5 0-6 1-1 2-1 3 0 2 1 2 3 1 5-1 0-1 1-2 1s-1 0-1 1v6c-1 3 0 7 2 9 0 1 2 2 3 2l3-3c1-1 2-2 3-4l3-3s0-1 1-1c-1-1-1-1-1-2s0-2 1-3v-1c2 0 4 0 5 2 1 1 0 3-2 5h-2l-3 8s-1 1-1 2c-2 6-2 9-3 14 0 1-1 3-1 4l-5-2c-3-1-6-2-9-2 0-1-1-1-2-1-2-1-5-1-7-1-5-1-13-1-19 0h-5c-1 1-3 1-3 1v-7-1-3-6c-1-1-1-2-1-4l-1-5c0-1 0-3-1-4-1 0-2 0-3-1v-1c-1 0-1-1-1-1l1-1c1-4 6-3 6 1zm18-6l1 1c2 1 1 5-1 6 0 2 1 6 2 8l2 3s1 0 1 1c-1 0-1 1-1 1l-3 3c-3 2-6 2-9 1 0-1-1-1-1-1 2-1 4-3 5-5 0 0 0-1 1-2 0-2 1-7 1-9 0 0-1 0-1-1-2-2-2-4 0-5l1-1h2z" fill="url(#id1)"/><path class="fil3" d="M25 56v1h1l1 1v2h-1c-1 0-1-1-1-1v1c0 1 1 1 1 1h1l-4 1v-1h2v-2 1h-1-1v-1-1c1 0 1-1 1-1v-1h1zm8 4l-4 1c0-1 1-1 1-1v-1-1 1h-1-1v-1-1h1v-1-1h2v1c1 0 0 0 0 1 0 0 1 0 1-1 0 0 1 0 1 1v2h-2s0-1-1-1l1 1s0 1 1 1h1zM66 63v-1s0-1-1-1v-1c0-1-1-1-1-1v-1h1c0-1 1-1 1-1s0 1 1 1v1c0-1 0-1 1-1h1c0 1 1 1 0 1v1s0 1-1 1l-1 1-1 1zm7-3v1c1 1 1 2 1 2s-1 1-2 1l-1 1v-1l-1-1v-1c0-1 1-1 2-1 0-1 1-1 1-1zM40 55c0 1 0 1-1 1v1h-1l-1 1v2h-1v-6h3v1h1zm-1 0h-1v-1h-1v3h1v-1h1v-1zm7 2v1s0 1-1 1v1h-2l-1-1h-1v-1-1-2l1-1h4v3zm-1 0v-1-1l-1-1h-1l-1 1v3c0 1 0 1 1 1h1c1 0 1 0 1-1v-1zm6 3h-1l-1-3-1 3h-1l1-6h1v3l2-3h1v1l-3 2 2 3zm5 1h-1l-2-1h-1l2-5v-1l3 1v1l-3-1v2h2v1h-2l-1 2h3v1zm5 1h-1v-2-1h-2v2h-1l1-5v-1h1l1 1h1v1h1s0 1-1 1v1h-1v1h1v2zm0-4v-1h-1v-1h-1l-1 2h3z"/></g></svg>